<?xml version="1.0" encoding="UTF-8"?>
<svg id="_圖層_1" data-name="圖層 1" xmlns="http://www.w3.org/2000/svg" viewBox="0 0 208.01 275.63">
  <defs>
    <style>
      .cls-1 {
        fill: #1c4029;
      }
    </style>
  </defs>
  <path class="cls-1" d="M201.9,137.4c0,13.4,.9,26.8,.61,40.19-.94,43.48-31.89,80.01-73.24,89.75-33.6,7.92-64.32,.95-90.69-21.59-18.56-15.86-29.95-36.38-32.01-60.83-1.53-18.18-.87-36.55-1.05-54.83-.11-11.12-.15-22.25,.14-33.37,.44-16.85,5.42-32.43,14.54-46.55C37.26,23.76,61.68,8.53,92.79,5.42c29.63-2.96,56.76,4.22,79.07,25.04,16.96,15.83,28.17,35.12,29.83,58.55,1.13,16.05,.22,32.25,.22,48.38,.22,0-.22,0,0,0Zm-189.45-1.25c.21,0-.21,0,0,0,0,15.18-.19,30.41,.83,45.52,1.51,22.34,11.47,41.17,27.76,56.37,22.87,21.35,50.17,28.74,80.7,23.37,44.12-7.76,74.05-44.08,73.94-88.85-.06-22.01,.02-44.02-.08-66.03-.03-5.85-.02-11.76-.8-17.54-3.39-25.01-15.83-44.88-35.95-59.65-19.15-14.06-40.97-19.07-64.6-16.85-22.88,2.15-42,11.77-57.77,28.31-3.5,3.67-7.03,7.34-10.06,11.38-1.78,2.38-2.49,5.53-3.86,8.24-6.48,12.87-10.28,26.38-10.13,40.91,.12,11.6,.02,23.21,.02,34.81Z"/>
  <path class="cls-1" d="M104.89,85.04c-7.88,7.24-14.75,13.67-21.76,19.95-4.99,4.48-10.82,6.38-17.52,4.91-2.98-.65-4.93,1.01-6.91,2.85-8.58,7.96-17.15,15.92-25.85,23.76-2.38,2.14-5.1,3.92-7.77,5.71-1.69,1.13-3.57,1.5-5.06-.44-1.53-2-.48-3.48,1.03-4.93,10.93-10.52,21.95-20.95,32.68-31.67,3.74-3.74,7.99-4.72,12.73-3.86,4.72,.85,8.45-.64,11.77-3.67,6.26-5.72,12.49-11.48,18.65-17.31,5.99-5.67,10.1-4.95,15.48,1.29,7.07,8.2,14.81,15.83,22.46,23.5,.8,.8,3.17,.74,4.45,.21,1.93-.81,3.51-2.41,5.28-3.63,4.21-2.9,7.93-2.79,11.65,.72,2.77,2.62,5.15,5.64,7.81,8.38,5.9,6.08,11.75,12.24,17.86,18.11,4.6,4.41,6.83,9.42,6.59,15.89-.47,12.53-.12,25.11-.85,37.62-1.41,24.13-12.72,42.98-31.96,57.28-1.97,1.47-3.79,1.65-5.69-.16-12.47-11.91-27.89-18.29-43.92-23.61-4.26-1.42-8.48-3.17-12.41-5.34-5.62-3.1-5.99-7.29-.86-11.21,3.35-2.56,7.34-4.32,11.13-6.26,4.01-2.06,8.35-3.56,12.15-5.94,7.78-4.88,7.91-12.31-.34-16.26-9.25-4.43-19.21-7.41-28.93-10.84-4.24-1.5-8.69-2.4-12.95-3.86-4.55-1.55-5.48-4.46-2.23-8.13,2.73-3.08,5.99-5.81,9.4-8.14,7.46-5.12,15.24-9.67,24.2-11.84,1.36-.33,2.87-1.77,3.38-3.07,.25-.65-1.39-2.47-2.54-3.17-7.97-4.84-9.69-9.78-6.21-18.65,1.3-3.32,2.89-6.54,3.93-9.93,.71-2.3,.69-4.83,1.13-8.24Zm54.36,69.68c.42-.23,.84-.46,1.26-.69,2.4,1.68,4.67,3.6,7.25,4.94,1.04,.54,2.73-.19,4.12-.34-.22-1.35,.05-3.24-.74-3.96-6.21-5.65-9.92-12.65-12.23-20.61-.37-1.27-2.17-2.13-3.31-3.17-.94,1.11-2.37,2.08-2.73,3.35-2.12,7.66-5.72,14.35-11.77,19.61-1.52,1.32-2.45,3.16-.69,4.54,.89,.7,3.14,.43,4.35-.21,2.35-1.25,4.4-3.07,7.05-5,.59,5.76-2.07,9.59-5.17,12.97-3.21,3.5-7.02,6.45-10.37,9.85-.78,.79-1.36,3.07-.91,3.5,.9,.87,2.6,1.33,3.92,1.23,1.32-.11,2.61-1.04,3.85-1.73,2.77-1.54,5.49-3.15,8.48-4.87,.1,.94,.25,1.43,.17,1.87-.14,.81-.35,1.62-.64,2.39-2.53,6.61-6.74,12.01-11.97,16.69-1.32,1.19-2.83,2.34-3.68,3.83-.56,.98-.59,3,.07,3.71,.64,.69,2.57,.67,3.7,.28,1.28-.44,2.28-1.67,3.43-2.52,3.09-2.26,6.19-4.51,9.83-7.15,0,6.5-.02,12,.01,17.49,.02,2.58-.53,6.09,3.08,6.19,3.99,.11,3.3-3.61,3.34-6.24,.09-5.53,.03-11.07,.03-17.44,4.07,3.07,7.43,5.69,10.88,8.16,1.93,1.38,4.41,3.16,6.34,.87,2.21-2.62-.95-4.01-2.34-5.76-4.12-5.2-8.26-10.4-12.11-15.79-1.06-1.48-1.15-3.64-1.68-5.49,3.88,1.45,6.94,3.45,10.13,5.23,2.05,1.14,4.65,2.73,6.4,.16,1.84-2.7-1.09-4.05-2.65-5.7-4.07-4.31-8.27-8.53-11.98-13.14-1.5-1.87-1.85-4.66-2.72-7.03Z"/>
  <path class="cls-1" d="M20.4,167.56c0-2.87-.05-5.74,.01-8.61,.09-4.03,.87-5.03,4.96-4.58,8.75,.96,17.49,2.07,26.16,3.57,14.08,2.42,27.78,6.32,40.87,12.13,2.26,1.01,4.49,2.28,6.42,3.82,3.9,3.1,3.79,6.14-.49,8.79-3.01,1.86-6.31,3.36-9.64,4.56-7.14,2.57-14.42,4.76-21.59,7.26-2.23,.78-4.39,1.88-6.41,3.12-6.71,4.11-7.27,12.27-.84,16.85,4.32,3.09,9.21,5.39,13.88,7.97,5.72,3.17,11.66,5.99,17.17,9.49,4.62,2.94,8.04,7.2,8.9,12.86,.31,2.04,.03,4.26-.39,6.31-.55,2.68-2.38,3.91-5.24,3.72-11.4-.78-21.94-4.41-31.6-10.28-20.92-12.71-34.91-30.76-40.08-54.94-1.54-7.19-1.26-14.71-2.09-22.05,.17-.02-.17,.02,0,0Z"/>
  <path class="cls-1" d="M137.75,53.94c9.55,.09,16.25,6.79,16.21,16.2-.05,8.78-7.32,15.91-16.04,15.72-9.26-.21-16.16-7.17-16.01-16.16,.15-9.21,6.82-15.85,15.84-15.76Z"/>
  <path class="cls-1" d="M70.25,58.26c4.75-5.43,10.25-9.14,17.51-9.56,.71-.04,1.52-.17,2.13,.1,.89,.4,2.09,.99,2.3,1.75,.17,.61-.73,1.98-1.47,2.32-6.5,3.01-11.35,7.81-15.33,13.63-.47,.69-1.05,1.3-1.63,1.9-2.87,2.98-5.36,2.98-7.59-.5-4.17-6.49-9.29-11.75-16.46-14.9-.79-.35-1.23-1.51-1.83-2.3,1.03-.66,2.03-1.83,3.1-1.9,5.65-.38,10.4,2.06,14.75,5.35,1.51,1.14,2.82,2.55,4.51,4.1Z"/>
  <g>
    <path class="cls-1" d="M173,61.37c-.4-.51-1.11-.95-1.7-1.21-.74-.34-1.38-.28-2.17-.17-.8,.11-1.59,.23-2.38,.36-1.85,.3-3.7,.63-5.53,1.02-.76,.16-1.56,.26-2.2,.72-.65,.48-1.11,1.15-1.68,1.71-.37,.36-.43,.78-.32,1.16,.07,.34,.26,.65,.58,.81,1.63,.79,3.56,.88,5.34,.87,2.07-.01,4.18-.23,6.19-.72,1.74-.43,3.38-1.07,4.01-2.9,.19-.55,.25-1.16-.13-1.64Z"/>
    <path class="cls-1" d="M128.07,44.27c-.99-3.23-2.42-6.25-4.74-8.75-.37-.4-.81-.46-1.2-.32,0,0-.02,0-.03,.01-.05,.02-.11,.04-.16,.07-.24,.1-.46,.25-.58,.49-.84,1.72-.65,3.74-.38,5.57,.3,2.04,.89,4.07,1.77,5.94,.63,1.34,1.87,3.41,3.66,2.84,.85-.28,1.93-.93,2.38-1.74,.36-.65,.06-1.34-.12-2-.19-.71-.39-1.41-.61-2.11Z"/>
    <path class="cls-1" d="M164.39,78.02c-1.18-.89-2.8-1.35-3.94-.13-.49,.53-.89,1.17-1.19,1.82-.12,.25-.24,.52-.31,.79-.18,.77,.26,1.23,.79,1.71,2.07,1.83,4.27,3.52,6.44,5.24,.02,.01,.04,.02,.05,.04,.14,.13,.3,.24,.5,.29,.06,.01,.11,0,.17,0,.1,.02,.21,.02,.31,.01,0,0,0,0,0,0,.26-.02,.51-.13,.73-.34,.02-.02,.04-.05,.05-.07,.03-.03,.05-.06,.07-.09,.06-.09,.11-.19,.15-.3,.01-.03,.04-.06,.04-.09,.42-1.74-.05-3.52-.82-5.1-.71-1.46-1.76-2.8-3.06-3.78Z"/>
    <path class="cls-1" d="M161.56,44.39c-.55-.57-1.44-.92-2.2-1.06-.62-.11-1.13-.04-1.63,.36-.47,.38-.92,.77-1.37,1.17-2.14,1.87-4.19,3.85-6.28,5.78-.03,.03-.06,.06-.09,.1,0,0,0,0-.01,.01-.35,.39-.36,.85-.17,1.23,.14,.37,.42,.69,.82,.75,1.85,.26,3.63-.31,5.29-1.11,1.61-.77,3.17-1.83,4.44-3.1,.92-.93,2.44-2.86,1.21-4.14Z"/>
    <path class="cls-1" d="M116.78,57.71c-.35-.33-.83-.54-1.25-.78-.78-.45-1.58-.88-2.38-1.29-.82-.42-1.66-.82-2.51-1.19-.87-.37-1.7-.08-2.43,.47-.73,.55-1.22,1.2-1.21,2.15,.01,.92,.34,1.66,1.12,2.16,1.79,1.16,3.67,2.17,5.51,3.24,.02,.01,.05,.01,.08,.03,.12,.06,.25,.1,.38,.12,0,0,0,0,0,0,.27,.05,.55,.01,.8-.15,.67-.44,1.49-.77,2.03-1.38,.59-.67,.68-1.55,.43-2.39-.11-.36-.29-.74-.57-1Z"/>
    <path class="cls-1" d="M142.8,32.67c-1.02,0-2.39-.34-3.24,.33-.11,.08-.21,.18-.29,.31-.01,.02-.03,.02-.04,.04-.09,.13-.14,.28-.16,.44-1.34,4.42-1.74,9.04-.74,13.57,.11,.48,.69,.98,1.21,.92,.46-.05,.99-.04,1.43-.17,.79-.25,.9-.94,1.03-1.66,.23-1.35,.46-2.71,.68-4.06,.45-2.71,.89-5.42,1.33-8.13,.13-.79-.32-1.58-1.21-1.58Z"/>
  </g>
</svg>