<?xml version="1.0" encoding="UTF-8"?>
<svg id="_圖層_1" data-name="圖層 1" xmlns="http://www.w3.org/2000/svg" viewBox="0 0 645.15 149.24">
  <defs>
    <style>
      .cls-1 {
        letter-spacing: -.04em;
      }

      .cls-2, .cls-3 {
        fill: #1c4029;
      }

      .cls-4 {
        letter-spacing: -.03em;
      }

      .cls-5 {
        letter-spacing: -.01em;
      }

      .cls-3 {
        font-family: SinhalaMN-Bold, 'Sinhala MN';
        font-size: 57.18px;
        font-weight: 700;
      }
    </style>
  </defs>
  <path class="cls-2" d="M121.48,74.5c0,6.95,.47,13.91,.32,20.86-.49,22.56-16.55,41.52-38,46.57-17.44,4.11-33.37,.49-47.06-11.2-9.63-8.23-15.54-18.88-16.61-31.57-.79-9.43-.45-18.96-.54-28.45-.06-5.77-.08-11.55,.07-17.32,.23-8.74,2.81-16.83,7.54-24.15C36.05,15.53,48.72,7.63,64.87,6.01c15.38-1.54,29.45,2.19,41.03,12.99,8.8,8.22,14.62,18.22,15.48,30.38,.59,8.33,.11,16.74,.11,25.11,.11,0-.11,0,0,0Zm-98.3-.65c.11,0-.11,0,0,0,0,7.88-.1,15.78,.43,23.62,.78,11.59,5.95,21.36,14.4,29.25,11.87,11.08,26.03,14.91,41.87,12.13,22.89-4.02,38.43-22.88,38.37-46.1-.03-11.42,0-22.84-.04-34.27-.01-3.04,0-6.1-.42-9.1-1.76-12.98-8.22-23.29-18.66-30.95-9.94-7.3-21.26-9.9-33.52-8.74-11.87,1.12-21.79,6.11-29.98,14.69-1.81,1.9-3.65,3.81-5.22,5.91-.92,1.23-1.29,2.87-2,4.28-3.36,6.68-5.33,13.69-5.26,21.23,.06,6.02,.01,12.04,.01,18.06Z"/>
  <path class="cls-2" d="M71.14,47.33c-4.09,3.76-7.65,7.09-11.29,10.35-2.59,2.32-5.61,3.31-9.09,2.55-1.55-.34-2.56,.52-3.59,1.48-4.45,4.13-8.9,8.26-13.41,12.33-1.23,1.11-2.65,2.03-4.03,2.96-.88,.59-1.85,.78-2.63-.23-.79-1.04-.25-1.8,.53-2.56,5.67-5.46,11.39-10.87,16.96-16.43,1.94-1.94,4.15-2.45,6.61-2,2.45,.44,4.39-.33,6.11-1.9,3.25-2.97,6.48-5.96,9.68-8.98,3.11-2.94,5.24-2.57,8.03,.67,3.67,4.25,7.68,8.21,11.65,12.19,.42,.42,1.65,.38,2.31,.11,1-.42,1.82-1.25,2.74-1.88,2.19-1.5,4.12-1.45,6.04,.37,1.44,1.36,2.67,2.93,4.05,4.35,3.06,3.16,6.1,6.35,9.27,9.4,2.39,2.29,3.54,4.89,3.42,8.25-.24,6.5-.06,13.03-.44,19.52-.73,12.52-6.6,22.3-16.58,29.72-1.02,.76-1.97,.86-2.95-.08-6.47-6.18-14.47-9.49-22.79-12.25-2.21-.73-4.4-1.65-6.44-2.77-2.92-1.61-3.11-3.78-.45-5.82,1.74-1.33,3.81-2.24,5.78-3.25,2.08-1.07,4.33-1.85,6.3-3.08,4.04-2.53,4.11-6.39-.17-8.44-4.8-2.3-9.97-3.84-15.01-5.62-2.2-.78-4.51-1.25-6.72-2-2.36-.81-2.84-2.31-1.16-4.22,1.42-1.6,3.11-3.01,4.88-4.23,3.87-2.65,7.91-5.02,12.56-6.15,.7-.17,1.49-.92,1.75-1.59,.13-.34-.72-1.28-1.32-1.65-4.13-2.51-5.03-5.08-3.22-9.68,.67-1.72,1.5-3.39,2.04-5.15,.37-1.19,.36-2.5,.59-4.28Zm28.21,36.16c.22-.12,.44-.24,.65-.36,1.24,.87,2.42,1.87,3.76,2.56,.54,.28,1.42-.1,2.14-.18-.11-.7,.03-1.68-.39-2.06-3.22-2.93-5.15-6.56-6.34-10.69-.19-.66-1.13-1.1-1.72-1.65-.49,.58-1.23,1.08-1.41,1.74-1.1,3.97-2.97,7.45-6.11,10.18-.79,.68-1.27,1.64-.36,2.35,.46,.36,1.63,.23,2.26-.11,1.22-.65,2.28-1.59,3.66-2.59,.3,2.99-1.08,4.98-2.68,6.73-1.67,1.82-3.64,3.35-5.38,5.11-.4,.41-.7,1.59-.47,1.81,.47,.45,1.35,.69,2.03,.64,.69-.06,1.36-.54,2-.9,1.44-.8,2.85-1.63,4.4-2.53,.05,.49,.13,.74,.09,.97-.07,.42-.18,.84-.33,1.24-1.31,3.43-3.5,6.23-6.21,8.66-.69,.62-1.47,1.21-1.91,1.99-.29,.51-.3,1.56,.03,1.93,.33,.36,1.33,.35,1.92,.15,.66-.23,1.18-.87,1.78-1.31,1.6-1.17,3.21-2.34,5.1-3.71,0,3.38-.01,6.23,0,9.08,0,1.34-.27,3.16,1.6,3.21,2.07,.06,1.71-1.87,1.74-3.24,.05-2.87,.01-5.74,.01-9.05,2.11,1.59,3.85,2.95,5.65,4.24,1,.72,2.29,1.64,3.29,.45,1.15-1.36-.49-2.08-1.22-2.99-2.14-2.7-4.28-5.4-6.29-8.19-.55-.77-.59-1.89-.87-2.85,2.01,.75,3.6,1.79,5.26,2.71,1.06,.59,2.41,1.42,3.32,.08,.95-1.4-.56-2.1-1.38-2.96-2.11-2.24-4.29-4.43-6.22-6.82-.78-.97-.96-2.42-1.41-3.65Z"/>
  <path class="cls-2" d="M27.3,90.15c0-1.49-.03-2.98,0-4.47,.05-2.09,.45-2.61,2.57-2.38,4.54,.5,9.08,1.08,13.58,1.85,7.31,1.26,14.41,3.28,21.21,6.3,1.18,.52,2.33,1.18,3.33,1.98,2.03,1.61,1.97,3.19-.25,4.56-1.56,.97-3.27,1.74-5,2.37-3.71,1.33-7.48,2.47-11.2,3.77-1.16,.4-2.28,.98-3.32,1.62-3.48,2.13-3.77,6.37-.44,8.75,2.24,1.6,4.78,2.79,7.2,4.14,2.97,1.64,6.05,3.11,8.91,4.93,2.4,1.52,4.17,3.74,4.62,6.67,.16,1.06,.02,2.21-.2,3.27-.29,1.39-1.23,2.03-2.72,1.93-5.92-.41-11.39-2.29-16.4-5.33-10.86-6.6-18.11-15.96-20.8-28.51-.8-3.73-.65-7.63-1.09-11.44,.09,0-.09,0,0,0Z"/>
  <path class="cls-2" d="M88.2,31.19c4.96,.05,8.43,3.53,8.41,8.41-.02,4.56-3.8,8.26-8.32,8.16-4.81-.11-8.38-3.72-8.31-8.38,.08-4.78,3.54-8.22,8.22-8.18Z"/>
  <path class="cls-2" d="M53.17,33.43c2.47-2.82,5.32-4.75,9.09-4.96,.37-.02,.79-.09,1.1,.05,.46,.21,1.08,.52,1.19,.91,.09,.32-.38,1.03-.76,1.21-3.37,1.56-5.89,4.05-7.95,7.07-.24,.36-.55,.68-.85,.99-1.49,1.54-2.78,1.54-3.94-.26-2.16-3.37-4.82-6.1-8.54-7.73-.41-.18-.64-.78-.95-1.19,.54-.34,1.05-.95,1.61-.99,2.93-.2,5.4,1.07,7.65,2.78,.78,.59,1.46,1.32,2.34,2.13Z"/>
  <path class="cls-2" d="M103.41,48.12c-1.21-.96-2.44-1.9-3.58-2.94-.07-.06,.52-1.24,.9-1.31,1.05-.18,3.14,2.46,2.69,4.24Z"/>
  <g>
    <path class="cls-2" d="M106.49,35.04c-.21-.26-.57-.49-.88-.63-.38-.18-.72-.15-1.13-.09-.41,.06-.83,.12-1.24,.19-.96,.15-1.92,.33-2.87,.53-.39,.08-.81,.13-1.14,.38-.34,.25-.57,.59-.87,.89-.19,.19-.23,.41-.17,.6,.04,.18,.13,.34,.3,.42,.85,.41,1.85,.46,2.77,.45,1.07,0,2.17-.12,3.21-.37,.9-.22,1.76-.55,2.08-1.5,.1-.28,.13-.6-.07-.85Z"/>
    <path class="cls-2" d="M83.17,26.17c-.52-1.68-1.26-3.24-2.46-4.54-.19-.21-.42-.24-.62-.17,0,0,0,0-.01,0-.03,.01-.06,.02-.08,.04-.13,.05-.24,.13-.3,.26-.43,.89-.34,1.94-.2,2.89,.16,1.06,.46,2.11,.92,3.08,.33,.69,.97,1.77,1.9,1.47,.44-.14,1-.48,1.23-.9,.19-.34,.03-.7-.06-1.04-.1-.37-.2-.73-.32-1.1Z"/>
    <path class="cls-2" d="M100.55,26.24c-.28-.29-.74-.48-1.14-.55-.32-.06-.59-.02-.85,.19-.24,.19-.48,.4-.71,.61-1.11,.97-2.18,2-3.26,3-.02,.02-.03,.03-.04,.05,0,0,0,0,0,0-.18,.2-.19,.44-.09,.64,.07,.19,.22,.36,.42,.39,.96,.13,1.88-.16,2.74-.57,.84-.4,1.65-.95,2.3-1.61,.48-.48,1.27-1.49,.63-2.15Z"/>
    <path class="cls-2" d="M77.32,33.15c-.18-.17-.43-.28-.65-.4-.41-.23-.82-.46-1.24-.67-.43-.22-.86-.43-1.3-.62-.45-.19-.88-.04-1.26,.24-.38,.29-.63,.62-.63,1.12,0,.48,.17,.86,.58,1.12,.93,.6,1.9,1.13,2.86,1.68,.01,0,.03,0,.04,.01,.06,.03,.13,.05,.2,.06,0,0,0,0,0,0,.14,.02,.29,0,.41-.08,.35-.23,.77-.4,1.05-.71,.31-.35,.35-.8,.22-1.24-.06-.19-.15-.39-.29-.52Z"/>
    <path class="cls-2" d="M90.82,20.15c-.53,0-1.24-.18-1.68,.17-.06,.04-.11,.1-.15,.16,0,0-.01,.01-.02,.02-.05,.07-.07,.15-.09,.23-.7,2.29-.9,4.69-.38,7.04,.05,.25,.36,.51,.63,.48,.24-.03,.51-.02,.74-.09,.41-.13,.47-.49,.53-.86,.12-.7,.24-1.41,.35-2.11,.23-1.41,.46-2.81,.69-4.22,.07-.41-.17-.82-.63-.82Z"/>
  </g>
  <text class="cls-3" transform="translate(138.01 98.89)"><tspan class="cls-4" x="0" y="0">W</tspan><tspan x="52.91" y="0">ander with</tspan><tspan class="cls-5" x="346.69" y="0"> </tspan><tspan class="cls-1" x="357.61" y="0">W</tspan><tspan x="409.71" y="0">en</tspan></text>
</svg>